<svg width="117" height="117" viewBox="0 0 117 117" fill="none" xmlns="http://www.w3.org/2000/svg">
  <path
    d="M117 58.5C117 90.8087 90.8087 117 58.5 117C26.1913 117 0 90.8087 0 58.5C0 26.1913 26.1913 0 58.5 0C90.8087 0 117 26.1913 117 58.5Z"
    fill="#8F44DF" />
  <path
    d="M21.944 58.368H27.312C28.104 58.368 28.8667 58.3093 29.6 58.192C30.3333 58.0747 30.9787 57.8547 31.536 57.532C32.0933 57.18 32.5333 56.696 32.856 56.08C33.208 55.464 33.384 54.6573 33.384 53.66C33.384 52.6627 33.208 51.856 32.856 51.24C32.5333 50.624 32.0933 50.1547 31.536 49.832C30.9787 49.48 30.3333 49.2453 29.6 49.128C28.8667 49.0107 28.104 48.952 27.312 48.952H21.944V58.368ZM15.036 43.584H29.204C31.1693 43.584 32.8413 43.8773 34.22 44.464C35.5987 45.0213 36.7133 45.7693 37.564 46.708C38.444 47.6467 39.0747 48.7173 39.456 49.92C39.8667 51.1227 40.072 52.3693 40.072 53.66C40.072 54.9213 39.8667 56.168 39.456 57.4C39.0747 58.6027 38.444 59.6733 37.564 60.612C36.7133 61.5507 35.5987 62.3133 34.22 62.9C32.8413 63.4573 31.1693 63.736 29.204 63.736H21.944V75H15.036V43.584Z"
    fill="white" />
  <path
    d="M44.3837 43.584H51.2917V56.608L63.5677 43.584H72.1917L59.9157 55.992L73.3797 75H64.7117L55.2517 60.876L51.2917 64.88V75H44.3837V43.584Z"
    fill="white" />
  <path
    d="M76.1376 43.584H83.0456V56.608L95.3216 43.584H103.946L91.6696 55.992L105.134 75H96.4656L87.0056 60.876L83.0456 64.88V75H76.1376V43.584Z"
    fill="white" />
</svg>